<svg width="532" height="103" viewBox="0 0 532 103" fill="none" xmlns="http://www.w3.org/2000/svg">
<path d="M53.59 72.72C53.59 77.94 49.34 82.19 44.12 82.19H14.86C9.63999 82.19 5.38998 77.94 5.38998 72.72V43.46C5.38998 38.24 9.63999 33.99 14.86 33.99H28.04V28.83H14.86C6.77999 28.83 0.22998 35.38 0.22998 43.46V72.72C0.22998 80.8 6.77999 87.35 14.86 87.35H44.12C52.2 87.35 58.75 80.8 58.75 72.72V61.51H53.59V72.72Z" fill="#FF8000"/>
<path d="M105.75 28.84H92.57V34H105.75C110.97 34 115.22 38.25 115.22 43.47V72.73C115.22 77.95 110.97 82.2 105.75 82.2H76.49C71.27 82.2 67.02 77.95 67.02 72.73V61.51H61.86V72.72C61.86 80.8 68.41 87.35 76.49 87.35H105.75C113.83 87.35 120.38 80.8 120.38 72.72V43.46C120.37 35.39 113.83 28.84 105.75 28.84Z" fill="#FF8000"/>
<path d="M74.93 0H45.67C37.59 0 31.04 6.55 31.04 14.63V28.84V34V43.89C31.04 51.97 37.59 58.52 45.67 58.52H53.58H58.74H61.85H67.01H74.92C83 58.52 89.55 51.97 89.55 43.89V34V28.84V14.63C89.56 6.55 83.01 0 74.93 0ZM84.4 34V43.89C84.4 49.11 80.15 53.36 74.93 53.36H67.02H61.86H58.75H53.59H45.68C40.46 53.36 36.21 49.11 36.21 43.89V34V28.84V14.63C36.21 9.41 40.46 5.16 45.68 5.16H74.94C80.16 5.16 84.41 9.41 84.41 14.63V28.84V34H84.4Z" fill="#FF8000"/>
<path d="M142.13 80.92L147.56 68.73C152.74 72.15 160.08 74.49 166.85 74.49C173.7 74.49 176.37 72.57 176.37 69.73C176.37 60.46 143.14 67.22 143.14 45.52C143.14 35.08 151.66 26.57 169.02 26.57C176.62 26.57 184.47 28.32 190.23 31.66L185.14 43.93C179.55 40.92 174.04 39.42 168.94 39.42C162.01 39.42 159.5 41.76 159.5 44.68C159.5 53.61 192.65 46.93 192.65 68.48C192.65 78.67 184.13 87.35 166.77 87.35C157.16 87.35 147.64 84.76 142.13 80.92Z" fill="#225C9C"/>
<path d="M250.48 63.55C250.48 77.91 240.54 86.93 228.27 86.93C223.01 86.93 218.75 85.34 215.66 82.17V102.38H199.8V40.92H214.91V45.43C217.92 41.84 222.34 40.17 228.27 40.17C240.54 40.17 250.48 49.19 250.48 63.55ZM234.45 63.55C234.45 56.7 230.28 52.78 224.93 52.78C219.58 52.78 215.41 56.7 215.41 63.55C215.41 70.4 219.58 74.32 224.93 74.32C230.28 74.32 234.45 70.4 234.45 63.55Z" fill="#225C9C"/>
<path d="M299.42 61.05V86.18H284.64V80.34C282.39 84.68 277.88 86.94 271.28 86.94C260.43 86.94 254.41 80.85 254.41 73C254.41 64.65 260.51 59.47 274.53 59.47H283.55C283.3 54.88 280.21 52.29 273.95 52.29C269.61 52.29 264.77 53.79 261.68 56.21L256.34 45.44C261.52 42.02 269.2 40.18 276.3 40.18C290.99 40.17 299.42 46.68 299.42 61.05ZM283.56 71.65V67.73H276.71C271.62 67.73 269.78 69.57 269.78 72.32C269.78 74.99 271.95 76.91 275.71 76.91C279.21 76.91 282.3 75.24 283.56 71.65Z" fill="#225C9C"/>
<path d="M305.78 63.47C305.78 49.86 316.55 40.17 331.75 40.17C342.02 40.17 349.87 44.76 352.96 52.61L340.69 58.87C338.52 54.61 335.35 52.78 331.67 52.78C326.16 52.78 321.82 56.62 321.82 63.47C321.82 70.48 326.16 74.32 331.67 74.32C335.34 74.32 338.52 72.48 340.69 68.22L352.96 74.48C349.87 82.33 342.02 86.92 331.75 86.92C316.55 86.93 305.78 77.24 305.78 63.47Z" fill="#225C9C"/>
<path d="M404.24 67.56H371.34C372.68 72.15 376.6 74.82 382.44 74.82C386.87 74.82 389.79 73.57 392.88 70.9L401.23 79.58C396.89 84.42 390.54 86.93 381.94 86.93C365.82 86.93 355.39 76.99 355.39 63.47C355.39 49.86 365.99 40.17 380.27 40.17C393.63 40.17 404.48 48.69 404.48 63.63C404.49 64.8 404.33 66.31 404.24 67.56ZM371.09 59.21H389.63C388.79 54.45 385.29 51.45 380.36 51.45C375.43 51.45 372.01 54.45 371.09 59.21Z" fill="#225C9C"/>
<path d="M428.92 40.51V53.37H454.72V66.14H428.92V86.18H412.39V27.73H456.23V40.5H428.92V40.51Z" fill="#225C9C"/>
<path d="M463.39 34.99C463.39 30.48 467.03 27 472.57 27C478.11 27 481.75 30.24 481.75 34.76C481.75 39.51 478.11 42.99 472.57 42.99C467.03 42.99 463.39 39.51 463.39 34.99ZM464.64 50.44H480.5V86.18H464.64V50.44Z" fill="#225C9C"/>
<path d="M490.16 27.58H506.03V86.18H490.16V27.58Z" fill="#225C9C"/>
<path d="M515.65 27.58H531.51V86.18H515.65V27.58Z" fill="#225C9C"/>
</svg>
